<svg width="196" height="100" viewBox="0 0 196 100" fill="none" xmlns="http://www.w3.org/2000/svg">
<path fill-rule="evenodd" clip-rule="evenodd" d="M50.2973 24.1474C50.2973 20.9074 49.0305 17.8611 46.7307 15.5698C44.4302 13.279 41.3719 12.0173 38.1196 12.0173H12.065V24.1474V36.2775H38.1196C41.3719 36.2775 44.4302 35.0158 46.7307 32.7245C49.0305 30.4337 50.2973 27.3874 50.2973 24.1474ZM62.3629 24.1474C62.3629 37.4838 51.5089 48.2948 38.1196 48.2948H9.85651H4.41823H0V24.1474V0H38.1196C51.5089 0 62.3629 10.8111 62.3629 24.1474ZM188.44 22.5702C189.826 23.9507 190.915 25.5598 191.677 27.3532C192.466 29.2127 192.866 31.1845 192.866 33.2141C192.866 35.2432 192.466 37.2156 191.677 39.0751C190.915 40.8685 189.826 42.4776 188.44 43.8581C187.054 45.2385 185.438 46.3231 183.638 47.0815C181.771 47.8678 179.791 48.2671 177.754 48.2671H136.564C133.249 48.2671 130.56 45.5888 130.56 42.2862C130.56 38.9836 133.249 36.3059 136.564 36.3059H177.754C179.466 36.3059 180.858 34.9189 180.858 33.2141C180.858 31.5094 179.466 30.1224 177.754 30.1224V30.1419H145.677C143.639 30.1419 141.659 29.7432 139.791 28.9563C137.99 28.1973 136.375 27.1128 134.988 25.7317C133.601 24.3512 132.513 22.7415 131.751 20.9476C130.961 19.0874 130.56 17.1151 130.56 15.0848C130.56 13.0552 130.961 11.0822 131.751 9.22208C132.513 7.4287 133.601 5.81903 134.988 4.43797C136.375 3.0569 137.99 1.97236 139.791 1.2139C141.659 0.42708 143.639 0.0277631 145.677 0.0277631H183.696C187.012 0.0277631 189.701 2.70543 189.701 6.00865C189.701 9.31128 187.012 11.9889 183.696 11.9889H145.677C143.963 11.9889 142.569 13.3777 142.569 15.0848C142.569 16.792 143.963 18.1807 145.677 18.1807H177.754V18.1612C179.791 18.1612 181.771 18.5599 183.638 19.3468C185.438 20.1052 187.054 21.1898 188.44 22.5702ZM115.52 0H127.53V42.2862C127.53 44.7051 126.067 46.886 123.823 47.8116C123.081 48.1182 122.3 48.2671 121.526 48.2671C119.964 48.2671 118.428 47.6592 117.279 46.515L77.2319 17.6827V48.2948H65.2238V6.00865C65.2238 3.58971 66.6869 1.40883 68.9304 0.483197C71.1739 -0.442438 73.7566 0.0691125 75.4735 1.77979L115.52 30.6121V0ZM40.8768 77.9027H31.3447C30.821 77.9027 30.3715 77.7308 30.0447 77.4059C29.6823 77.045 29.5056 76.5884 29.5056 76.0107V64.7246C29.5056 64.1416 29.6806 63.6726 30.0251 63.33C30.3833 62.998 30.8246 62.8332 31.3447 62.8332C31.8642 62.8332 32.3054 62.998 32.6553 63.3217C33.0076 63.6726 33.1825 64.1416 33.1825 64.7246V74.6012H38.861V64.7246C38.861 64.1416 39.0359 63.6726 39.3805 63.33C39.7381 62.998 40.1793 62.8332 40.6989 62.8332C41.219 62.8332 41.6602 62.998 42.0101 63.3217C42.363 63.6726 42.5379 64.1416 42.5379 64.7246V74.6012H42.7158C43.2389 74.6012 43.6884 74.7725 44.0146 75.098C44.3776 75.4589 44.5543 75.9156 44.5543 76.4927V79.2643C44.5543 79.8467 44.3793 80.3157 44.0348 80.6583C43.676 80.9915 43.2353 81.1563 42.7158 81.1563C42.1957 81.1563 41.7539 80.9915 41.4046 80.666C41.0517 80.3169 40.8768 79.8473 40.8768 79.2643V77.9027ZM58.7957 76.1311C58.7957 76.7136 58.6208 77.1826 58.2762 77.5252C57.9174 77.8584 57.4762 78.0226 56.9567 78.0226C56.4377 78.0226 55.9971 77.8584 55.6466 77.5341C55.2937 77.1826 55.1188 76.7136 55.1188 76.1311V69.5383L49.1302 77.234C48.7251 77.7574 48.2103 78.0226 47.6025 78.0226C47.0829 78.0226 46.6423 77.8584 46.2918 77.5341C45.9384 77.1826 45.7634 76.7136 45.7634 76.1311V64.7246C45.7634 64.1416 45.9384 63.672 46.2829 63.33C46.6411 62.998 47.0824 62.8332 47.6025 62.8332C48.122 62.8332 48.5632 62.998 48.9131 63.3217C49.266 63.6726 49.4409 64.1416 49.4409 64.7246V71.4091L55.4278 63.623C55.8352 63.099 56.3494 62.8332 56.9567 62.8332C57.4768 62.8332 57.9186 62.998 58.2679 63.3217C58.6208 63.672 58.7957 64.1416 58.7957 64.7246V76.1311ZM66.9126 67.9437L66.8242 67.9142C66.6676 67.8947 66.5639 67.8817 66.4731 67.8817C65.8083 67.8817 65.2491 68.1074 64.7639 68.5729C64.2765 69.059 64.0375 69.6473 64.0375 70.3674C64.0375 71.0957 64.2818 71.6989 64.7639 72.1614C65.236 72.6139 65.7947 72.8336 66.4731 72.8336C66.571 72.8336 66.7186 72.807 66.9126 72.755V67.9437ZM70.5361 72.781C70.6743 72.82 70.765 72.8336 70.8682 72.8336C71.5461 72.8336 72.1053 72.6139 72.5774 72.1614C73.0595 71.6983 73.3039 71.0952 73.3039 70.3674C73.3039 69.6473 73.0649 69.0596 72.5732 68.5693C72.0917 68.1074 71.533 67.8817 70.8682 67.8817C70.7615 67.8817 70.6363 67.9 70.5112 67.9178L70.4294 67.9449V72.7586L70.5361 72.781ZM70.5088 76.1392C70.5076 76.7175 70.3339 77.1836 69.9905 77.5256C69.6305 77.8581 69.1893 78.0224 68.671 78.0224C68.1515 78.0224 67.7108 77.8581 67.3603 77.5338C67.0086 77.1836 66.8337 76.7175 66.8325 76.1392C66.724 76.1575 66.6048 76.1752 66.4767 76.1924C66.1677 76.2331 65.9091 76.255 65.7271 76.255C64.159 76.255 62.8359 75.6643 61.7933 74.5C60.7638 73.3901 60.239 71.9978 60.239 70.3674C60.239 68.7412 60.7484 67.3436 61.753 66.2153C62.7956 65.0505 64.1329 64.4598 65.7271 64.4598C65.9038 64.4598 66.1546 64.4805 66.4933 64.5224C66.6172 64.5312 66.7323 64.5442 66.8372 64.5584C66.8681 64.0528 67.0407 63.6399 67.3514 63.3298C67.7096 62.9978 68.1509 62.8336 68.671 62.8336C69.1905 62.8336 69.6311 62.9978 69.9816 63.3215C70.3007 63.6387 70.4738 64.0528 70.5047 64.5584C70.612 64.5437 70.733 64.5307 70.8652 64.5212C71.1867 64.4804 71.4375 64.4598 71.6143 64.4598C73.209 64.4598 74.5463 65.0505 75.5883 66.2148C76.5924 67.3436 77.1024 68.7406 77.1024 70.3674C77.1024 71.9901 76.5852 73.3812 75.5664 74.5023C74.5256 75.6643 73.1954 76.255 71.6143 76.255C71.4322 76.255 71.1736 76.2331 70.8652 76.1924C70.7366 76.1752 70.618 76.1575 70.5088 76.1392ZM82.2427 69.8618H83.9726C84.5123 69.8618 84.9275 69.6929 85.243 69.3461C85.5697 69.0201 85.7227 68.6024 85.7227 68.0578C85.7227 67.5161 85.5673 67.0908 85.2483 66.7559C84.9263 66.4186 84.5094 66.255 83.9726 66.255H82.2427V69.8618ZM80.4042 78.0224C79.8847 78.0224 79.4441 77.8582 79.0936 77.5339C78.7407 77.183 78.5658 76.714 78.5658 76.131V64.845C78.5658 63.6258 79.2407 62.9541 80.4647 62.9541H84.0337C85.6029 62.9541 86.9183 63.4285 87.9431 64.3641C89.0047 65.3358 89.5212 66.5509 89.5212 68.0779C89.5212 69.5936 88.9827 70.8436 87.9212 71.794C86.9106 72.7143 85.6783 73.1627 84.1547 73.1627H82.2427V76.131C82.2427 76.714 82.0678 77.183 81.7232 77.5256C81.3644 77.8582 80.9232 78.0224 80.4042 78.0224ZM95.1155 67.409C94.5301 68.1994 94.233 69.2154 94.233 70.4275C94.233 71.6716 94.523 72.6941 95.0965 73.4685C95.7222 74.312 96.5726 74.722 97.6964 74.722C98.8197 74.722 99.6707 74.312 100.297 73.4679C100.87 72.6941 101.16 71.6716 101.16 70.4275C101.16 69.2154 100.863 68.1994 100.277 67.4079C99.6357 66.5513 98.7912 66.1343 97.6964 66.1343C96.6011 66.1343 95.7566 66.5513 95.1155 67.409ZM104.959 70.4275C104.959 72.5948 104.286 74.4384 102.96 75.9069C101.594 77.3914 99.8237 78.1439 97.6964 78.1439C95.5822 78.1439 93.8191 77.3914 92.4556 75.9093C91.1148 74.4479 90.4339 72.6037 90.4339 70.4275C90.4339 68.2313 91.1148 66.3865 92.4574 64.9458C93.8179 63.4643 95.581 62.7129 97.6964 62.7129C99.7929 62.7129 101.55 63.4785 102.918 64.9889C104.291 66.4816 104.959 68.2608 104.959 70.4275ZM110.272 68.617H111.519C111.932 68.617 112.24 68.5107 112.485 68.2826C112.717 68.0664 112.825 67.7717 112.825 67.3546C112.825 66.9973 112.713 66.7468 112.461 66.5424C112.218 66.3493 111.909 66.2547 111.519 66.2547H110.272V68.617ZM113.893 73.179C113.893 72.5918 113.688 71.9178 112.083 71.9178H110.272V74.6014H112.324C112.797 74.6014 113.168 74.4768 113.46 74.2204C113.75 73.9788 113.893 73.6303 113.893 73.179ZM117.692 73.2192C117.692 74.7089 117.22 75.8779 116.29 76.696C115.401 77.4953 114.188 77.9029 112.687 77.9029H108.534C108 77.9029 107.542 77.7404 107.171 77.4214C106.791 77.0682 106.595 76.5968 106.595 76.0504V64.7845C106.595 64.218 106.779 63.7596 107.142 63.4229C107.505 63.1087 107.964 62.9539 108.514 62.9539H112.385C113.546 62.9539 114.522 63.3065 115.287 64.0024C116.092 64.7177 116.502 65.664 116.502 66.8124C116.502 68.0534 116.037 69.0104 115.118 69.6661C115.73 69.8775 116.266 70.2331 116.72 70.7317C117.364 71.44 117.692 72.277 117.692 73.2192ZM123.549 71.6692H126.481L125.03 67.1627L123.549 71.6692ZM120.175 78.0228C119.707 78.0228 119.283 77.8603 118.913 77.5413C118.549 77.2283 118.356 76.7965 118.356 76.2914C118.356 76.1201 118.381 75.9482 118.429 75.7805L118.532 75.4833L122.57 64.5919C123.048 63.3438 123.878 62.7129 125.034 62.7129C126.219 62.7129 127.072 63.365 127.499 64.5984L131.45 75.5188C131.51 75.657 131.561 75.8425 131.587 76.0244L131.597 76.0841C131.616 76.1957 131.63 76.292 131.63 76.3717C131.63 76.8473 131.453 77.2513 131.102 77.5744C130.779 77.8716 130.38 78.0228 129.912 78.0228C129.009 78.0228 128.392 77.5827 128.13 76.751L127.597 75.0905H122.469L121.936 76.7333C121.671 77.5756 121.062 78.0228 120.175 78.0228ZM136.959 66.7554C136.684 66.9964 136.545 67.3544 136.545 67.8169C136.545 68.2635 136.686 68.6232 136.966 68.8855C137.249 69.1507 137.618 69.2789 138.094 69.2789H139.844V66.375H138.094C137.621 66.375 137.25 66.4991 136.959 66.7554ZM132.646 76.1506C132.646 75.7725 132.816 75.3904 133.137 75.046L136.168 71.8136C135.254 71.588 134.521 71.2093 133.938 70.6647C133.148 69.9204 132.747 68.9623 132.747 67.8169C132.747 64.5899 134.546 62.9537 138.094 62.9537H141.642C142.854 62.9537 143.521 63.6259 143.521 64.8451V76.1311C143.521 76.7135 143.346 77.1825 143.001 77.5252C142.642 77.8583 142.202 78.0225 141.682 78.0225C141.163 78.0225 140.723 77.8583 140.372 77.534C140.019 77.1826 139.844 76.7135 139.844 76.1311V72.6288L135.907 77.3828C135.708 77.635 135.422 77.7839 135.225 77.8731C134.426 78.1891 133.694 78.0078 133.158 77.4371C132.823 77.0804 132.646 76.6356 132.646 76.1506ZM155.571 77.2341C155.166 77.7575 154.652 78.0227 154.044 78.0227C153.524 78.0227 153.084 77.8585 152.733 77.5342C152.38 77.1827 152.205 76.7137 152.205 76.1313V64.7248C152.205 64.1412 152.38 63.6721 152.724 63.3295C153.082 62.9975 153.524 62.8333 154.044 62.8333C154.563 62.8333 155.004 62.9975 155.354 63.3218C155.707 63.6727 155.882 64.1412 155.882 64.7248V71.4092L161.869 63.6231C162.276 63.0986 162.791 62.8333 163.398 62.8333C163.918 62.8333 164.359 62.9975 164.709 63.3218C165.062 63.6721 165.237 64.1412 165.237 64.7248V76.1313C165.237 76.7137 165.062 77.1827 164.717 77.5253C164.358 77.8585 163.917 78.0227 163.398 78.0227C162.879 78.0227 162.438 77.8585 162.088 77.5342C161.735 77.1827 161.56 76.7137 161.56 76.1313V69.5384L155.571 77.2341ZM8.48366 95.0354C8.48366 94.4483 8.27787 93.7743 6.67307 93.7743H4.86249V96.4567H6.91445C7.38711 96.4567 7.75836 96.3326 8.05014 96.0768C8.34014 95.8352 8.48366 95.4873 8.48366 95.0354ZM10.7224 91.5438C11.7579 92.3554 12.2816 93.5433 12.2816 95.0756C12.2816 96.5653 11.8101 97.7343 10.8808 98.5519C9.9912 99.3523 8.77841 99.7587 7.27799 99.7587H3.12485C2.58991 99.7587 2.13149 99.5968 1.76142 99.2779C1.38128 98.924 1.18498 98.4527 1.18498 97.9068V86.6409C1.18498 86.0744 1.36941 85.6166 1.73177 85.2782C2.0959 84.9651 2.55433 84.8097 3.10468 84.8097H9.11289C9.66917 84.8097 10.1157 84.9869 10.4407 85.3355C10.729 85.6739 10.8707 86.0691 10.8707 86.521C10.8707 86.977 10.7236 87.358 10.4218 87.6853C10.1074 88.045 9.66502 88.2317 9.11289 88.2317H4.86249V90.4722H6.91445C8.51153 90.4722 9.79252 90.8332 10.7224 91.5438ZM27.3559 84.6889C27.8742 84.6889 28.3155 84.8531 28.6666 85.1774C29.02 85.5294 29.195 85.9991 29.195 86.5809V97.988C29.195 98.5693 29.02 99.0383 28.6761 99.3815C28.3155 99.7146 27.8742 99.8788 27.3559 99.8788C26.8364 99.8788 26.3958 99.7146 26.0453 99.3903C25.6918 99.0383 25.5169 98.5693 25.5169 97.988V86.5809C25.5169 85.9991 25.6918 85.5294 26.0358 85.1862C26.3958 84.8531 26.8364 84.6889 27.3559 84.6889ZM20.7183 94.9351C20.7183 94.5298 20.5795 94.2174 20.2918 93.9793C19.9651 93.7058 19.5132 93.5735 18.9077 93.5735H17.3995V96.4567H19.1496C19.6223 96.4567 19.9995 96.3203 20.2705 96.0509C20.57 95.768 20.7183 95.3946 20.7183 94.9351ZM22.9653 91.4097C23.9943 92.2385 24.5167 93.4382 24.5167 94.9752C24.5167 96.4614 24.047 97.6493 23.1225 98.5065C22.224 99.337 21.0094 99.7588 19.5132 99.7588H15.6625C15.1276 99.7588 14.6691 99.5969 14.2991 99.2779C13.9189 98.9241 13.7226 98.4527 13.7226 97.9069V86.5807C13.7226 85.9983 13.8976 85.5287 14.2421 85.1861C14.6015 84.8535 15.0422 84.6887 15.5617 84.6887C16.0806 84.6887 16.5212 84.8535 16.8717 85.1772C17.2246 85.5287 17.3995 85.9983 17.3995 86.5807V90.2714H19.1496C20.7515 90.2714 22.0354 90.6548 22.9653 91.4097ZM39.4642 84.81C39.9749 84.81 40.3835 84.9819 40.712 85.3358C41.0103 85.6577 41.1622 86.0558 41.1622 86.5207C41.1622 86.9797 41.0317 87.3571 40.7624 87.6743C40.4671 88.0424 40.0282 88.232 39.4642 88.232H37.5938V97.9881C37.5938 98.5693 37.4188 99.0383 37.0748 99.3815C36.7149 99.7141 36.2742 99.8789 35.7547 99.8789C35.2352 99.8789 34.7946 99.7141 34.4441 99.3904C34.0906 99.0383 33.9163 98.5693 33.9163 97.9881V88.232H32.0452C31.4812 88.232 31.0423 88.0424 30.7416 87.6679C30.4783 87.3571 30.3473 86.9797 30.3473 86.5207C30.3473 86.0558 30.4991 85.6577 30.7974 85.3358C31.1259 84.9819 31.5346 84.81 32.0452 84.81H39.4642ZM45.8691 89.2651C45.2837 90.0555 44.9866 91.0715 44.9866 92.2836C44.9866 93.5276 45.2766 94.5502 45.8501 95.3252C46.4758 96.1681 47.3268 96.578 48.45 96.578C49.5733 96.578 50.4243 96.1681 51.0506 95.3246C51.6235 94.5502 51.9135 93.5276 51.9135 92.2836C51.9135 91.0715 51.6163 90.0555 51.0304 89.2639C50.3893 88.4074 49.5454 87.991 48.45 87.991C47.3541 87.991 46.5102 88.4074 45.8691 89.2651ZM48.45 84.569C50.5471 84.569 52.3043 85.3352 53.6719 86.845C55.0442 88.3371 55.7126 90.1163 55.7126 92.2836C55.7126 94.4509 55.0394 96.2945 53.7134 97.7636C52.3476 99.2474 50.5773 100 48.45 100C46.3358 100 44.5727 99.2474 43.2098 97.766C41.8684 96.3034 41.1875 94.4592 41.1875 92.2836C41.1875 90.0874 41.8684 88.2432 43.211 86.8019C44.5715 85.321 46.3346 84.569 48.45 84.569ZM61.0255 90.4725H62.2721C62.686 90.4725 62.9932 90.3667 63.2387 90.1393C63.4706 89.9231 63.5785 89.6283 63.5785 89.2113C63.5785 88.8539 63.4665 88.6029 63.2144 88.3985C62.9713 88.2053 62.6623 88.1108 62.2721 88.1108H61.0255V90.4725ZM64.6466 95.0357C64.6466 94.4479 64.4414 93.7745 62.8366 93.7745H61.0255V96.4569H63.078C63.5507 96.4569 63.9219 96.3328 64.2131 96.0765C64.5031 95.8355 64.6466 95.487 64.6466 95.0357ZM65.8719 91.5227C66.4833 91.7336 67.02 92.0898 67.4731 92.5878C68.1178 93.2966 68.4451 94.1337 68.4451 95.0758C68.4451 96.565 67.9737 97.7346 67.0437 98.5521C66.1542 99.3519 64.942 99.7589 63.441 99.7589H59.2878C58.7535 99.7589 58.2951 99.5965 57.9244 99.2775C57.5448 98.9243 57.3485 98.4529 57.3485 97.9071V86.6412C57.3485 86.0747 57.5324 85.6163 57.8953 85.2784C58.2595 84.9653 58.7173 84.81 59.2677 84.81H63.1385C64.2997 84.81 65.2759 85.1632 66.0403 85.8585C66.8451 86.5732 67.2555 87.5201 67.2555 88.669C67.2555 89.9101 66.7905 90.8665 65.8719 91.5227ZM77.2347 93.5252L75.7841 89.0193L74.3027 93.5252H77.2347ZM82.3403 97.8805L82.351 97.9419C82.3694 98.0536 82.3842 98.1487 82.3842 98.2278C82.3842 98.7033 82.2063 99.1074 81.8558 99.4305C81.5332 99.7276 81.1329 99.8788 80.6661 99.8788C79.7623 99.8788 79.1461 99.4388 78.8828 98.6071L78.3509 96.9472H73.2222L72.6902 98.5893C72.4245 99.4317 71.8148 99.8788 70.9282 99.8788C70.4609 99.8788 70.0363 99.7164 69.6662 99.3974C69.3027 99.0844 69.1099 98.6525 69.1099 98.1481C69.1099 97.9762 69.1348 97.8043 69.1829 97.6365L69.2855 97.3394L73.3236 86.448C73.8022 85.1998 74.6307 84.569 75.7877 84.569C76.9726 84.569 77.8248 85.2205 78.253 86.4539L82.2033 97.3748C82.2632 97.5131 82.3142 97.6986 82.3403 97.8805ZM87.7122 88.6121C87.4376 88.8531 87.2988 89.2105 87.2988 89.673C87.2988 90.1196 87.4406 90.4793 87.7205 90.7422C88.0022 91.0068 88.3711 91.135 88.8473 91.135H90.5974V88.2317H88.8473C88.3746 88.2317 88.0034 88.3557 87.7122 88.6121ZM92.3955 84.8097C93.6071 84.8097 94.2743 85.4814 94.2743 86.7012V97.9878C94.2743 98.5696 94.0999 99.0386 93.7548 99.3812C93.396 99.7144 92.9553 99.8786 92.4358 99.8786C91.9169 99.8786 91.4763 99.7144 91.1258 99.3901C90.7723 99.0386 90.5974 98.5696 90.5974 97.9878V94.4849L86.6601 99.2389C86.462 99.4911 86.1756 99.64 85.9781 99.7292C85.1793 100.045 84.448 99.8633 83.9113 99.2932C83.5762 98.9364 83.3995 98.4916 83.3995 98.0073C83.3995 97.6292 83.5697 97.247 83.8906 96.9026L86.9216 93.6703C86.0066 93.4441 85.2736 93.0654 84.6918 92.5208C83.9012 91.7765 83.5003 90.8184 83.5003 89.673C83.5003 86.4466 85.2997 84.8097 88.8473 84.8097H92.3955ZM110.926 84.81C111.436 84.81 111.845 84.9819 112.174 85.3358C112.472 85.6577 112.624 86.0558 112.624 86.5207C112.624 86.9797 112.493 87.3571 112.224 87.6743C111.929 88.0424 111.49 88.232 110.926 88.232H109.055V97.9881C109.055 98.5693 108.88 99.0383 108.536 99.3815C108.176 99.7141 107.736 99.8789 107.216 99.8789C106.697 99.8789 106.256 99.7141 105.906 99.3904C105.552 99.0383 105.378 98.5693 105.378 97.9881V88.232H103.507C102.943 88.232 102.504 88.0424 102.203 87.6679C101.94 87.3571 101.809 86.9797 101.809 86.5207C101.809 86.0558 101.961 85.6577 102.259 85.3358C102.587 84.9819 102.996 84.81 103.507 84.81H110.926ZM120.825 96.3368C121.38 96.3368 121.826 96.5134 122.152 96.8619C122.441 97.2022 122.582 97.5974 122.582 98.0475C122.582 98.5059 122.435 98.8863 122.133 99.2123C121.82 99.5721 121.377 99.7588 120.825 99.7588H115.623C115.103 99.7588 114.655 99.5869 114.291 99.249C113.928 98.9123 113.744 98.4675 113.744 97.9264V86.882C113.744 85.5458 114.418 84.8098 115.643 84.8098H120.643C121.2 84.8098 121.647 84.987 121.971 85.3355C122.259 85.674 122.401 86.0692 122.401 86.5211C122.401 86.9765 122.254 87.3575 121.952 87.6847C121.638 88.0451 121.195 88.2317 120.643 88.2317H117.421V90.513H120.401C120.962 90.513 121.428 90.6944 121.749 91.0376C122.048 91.3619 122.199 91.76 122.199 92.2237C122.199 92.6815 122.052 93.0619 121.75 93.3886C121.409 93.7513 120.956 93.935 120.401 93.935H117.421V96.3368H120.825ZM135.962 96.9298C136.093 97.1112 136.183 97.2754 136.248 97.452C136.333 97.7296 136.37 97.9505 136.37 98.1484C136.37 98.6618 136.193 99.0859 135.842 99.4096C135.476 99.7274 135.043 99.8786 134.511 99.8786C133.901 99.8786 133.378 99.6027 132.997 99.0823L129.955 94.8688L126.913 99.0812C126.532 99.6028 126.008 99.8786 125.398 99.8786C124.863 99.8786 124.422 99.7209 124.087 99.409C123.727 99.0989 123.539 98.6718 123.539 98.1484C123.539 97.924 123.59 97.6806 123.684 97.4449C123.74 97.2955 123.814 97.1153 123.943 96.9351L127.795 91.7806L124.671 87.5571C124.417 87.2346 124.285 86.8701 124.285 86.4808C124.285 85.9291 124.473 85.4884 124.842 85.1701C125.184 84.8534 125.626 84.6886 126.144 84.6886C126.783 84.6886 127.329 84.9952 127.724 85.5741L129.955 88.7273L132.188 85.5706C132.58 84.9952 133.127 84.6886 133.765 84.6886C134.285 84.6886 134.725 84.8534 135.076 85.1771C135.436 85.4884 135.624 85.9291 135.624 86.4808C135.624 86.8701 135.492 87.2346 135.232 87.5648L132.115 91.7806L135.962 96.9298ZM148.852 84.6889C149.371 84.6889 149.812 84.8531 150.162 85.1774C150.516 85.5289 150.691 85.9985 150.691 86.5809V97.988C150.691 98.5698 150.516 99.0389 150.171 99.3815C149.812 99.7146 149.371 99.8788 148.852 99.8788C148.333 99.8788 147.892 99.7146 147.541 99.3903C147.188 99.0389 147.013 98.5698 147.013 97.988V93.9346H141.335V97.988C141.335 98.5698 141.16 99.0389 140.816 99.3815C140.457 99.7146 140.016 99.8788 139.497 99.8788C138.978 99.8788 138.537 99.7146 138.187 99.3903C137.833 99.0389 137.658 98.5698 137.658 97.988V86.5809C137.658 85.9985 137.833 85.5289 138.178 85.1862C138.537 84.8531 138.978 84.6889 139.497 84.6889C140.016 84.6889 140.457 84.8531 140.807 85.1774C141.16 85.5289 141.335 85.9985 141.335 86.5809V90.5126H147.013V86.5809C147.013 85.9985 147.188 85.5289 147.533 85.1862C147.892 84.8531 148.333 84.6889 148.852 84.6889ZM164.166 84.6889C164.685 84.6889 165.126 84.8531 165.476 85.1774C165.829 85.5289 166.004 85.9985 166.004 86.5809V97.988C166.004 98.5698 165.83 99.0389 165.485 99.3815C165.126 99.7146 164.685 99.8788 164.166 99.8788C163.646 99.8788 163.206 99.7146 162.855 99.3903C162.502 99.0389 162.327 98.5698 162.327 97.988V91.3951L156.339 99.0903C155.933 99.6136 155.419 99.8788 154.811 99.8788C154.292 99.8788 153.85 99.7146 153.501 99.3903C153.147 99.0389 152.972 98.5698 152.972 97.988V86.5809C152.972 85.9985 153.147 85.5289 153.492 85.1862C153.85 84.8531 154.292 84.6889 154.811 84.6889C155.33 84.6889 155.771 84.8531 156.121 85.1774C156.474 85.5289 156.649 85.9985 156.649 86.5809V93.2653L162.637 85.4787C163.044 84.9541 163.559 84.6889 164.166 84.6889ZM174.919 91.8085L179.353 96.4165C179.974 97.0581 180.291 97.6476 180.291 98.168C180.291 98.7044 180.087 99.1403 179.686 99.4646C179.334 99.7404 178.9 99.8787 178.391 99.8787C177.868 99.8787 177.272 99.526 176.621 98.8319L171.964 93.8163V98.1077C171.964 98.5968 171.789 99.0192 171.444 99.3618C171.1 99.705 170.656 99.8787 170.126 99.8787C169.606 99.8787 169.165 99.7144 168.815 99.3902C168.464 99.067 168.286 98.6358 168.286 98.1077V86.5004C168.286 85.9977 168.461 85.5688 168.806 85.2262C169.137 84.8724 169.583 84.6887 170.126 84.6887C170.644 84.6887 171.085 84.8535 171.436 85.1772C171.786 85.5003 171.964 85.9451 171.964 86.5004V90.0169L176.359 85.3532C176.496 85.1979 176.667 85.0567 176.888 84.9197C177.628 84.5121 178.438 84.642 179.017 85.1772C179.394 85.5287 179.585 85.9605 179.585 86.4596C179.585 86.9759 179.241 87.5601 178.502 88.2967L174.919 91.8085ZM189.276 93.5252L187.825 89.0193L186.344 93.5252H189.276ZM194.392 97.9419C194.41 98.0536 194.425 98.1487 194.425 98.2278C194.425 98.7033 194.247 99.1074 193.897 99.4305C193.574 99.7276 193.174 99.8788 192.707 99.8788C191.803 99.8788 191.187 99.4388 190.924 98.6071L190.392 96.9472H185.263L184.731 98.5893C184.465 99.4317 183.856 99.8788 182.969 99.8788C182.502 99.8788 182.077 99.7164 181.707 99.3974C181.343 99.0838 181.151 98.6519 181.151 98.1481C181.151 97.9762 181.176 97.8043 181.224 97.6365L181.325 97.3429L185.365 86.448C185.843 85.1998 186.672 84.569 187.829 84.569C189.014 84.569 189.866 85.2205 190.295 86.4539L194.244 97.3748C194.304 97.5131 194.355 97.6986 194.381 97.8805L194.392 97.9419Z" fill="#FC8507"/>
</svg>
