<svg width="40" height="40" viewBox="0 0 40 40" fill="none" xmlns="http://www.w3.org/2000/svg">
<g clip-path="url(#clip0)">
<path d="M2.164 14.7436C2.2094 15.0006 2.35489 15.2291 2.56874 15.3788C2.73536 15.4953 2.93241 15.5565 3.13301 15.5565C3.18994 15.5565 3.24728 15.5517 3.30408 15.5416L14.9317 13.4888C15.4669 13.3943 15.8241 12.884 15.7296 12.3488L15.2735 9.76494C15.179 9.2298 14.6689 8.87255 14.1334 8.96701L9.28825 9.8224C9.96994 9.017 10.7414 8.28218 11.6006 7.62437C14.1931 5.63979 17.2891 4.59076 20.5541 4.59076C25.2007 4.59076 29.4791 6.69814 32.2919 10.3725C34.2833 12.9738 35.3347 16.0757 35.3323 19.3424C35.3319 19.8858 35.7722 20.3266 36.3156 20.327L38.9395 20.329C38.9398 20.329 38.9399 20.329 38.9402 20.329C39.2008 20.329 39.451 20.2255 39.6354 20.0413C39.8201 19.8568 39.9239 19.6066 39.9241 19.3457C39.9271 15.0598 38.5488 10.9917 35.938 7.58121C32.2496 2.76335 26.6413 0 20.5509 0C16.2694 0 12.2092 1.37557 8.8094 3.97821C7.57905 4.92006 6.46613 6.0091 5.49713 7.21111L4.63321 2.31768C4.53875 1.78254 4.02867 1.42517 3.49313 1.51976L0.90926 1.97592C0.374118 2.07038 0.0168754 2.58073 0.111335 3.11587L2.164 14.7436Z" fill="#FF5000"/>
<path d="M37.8362 25.2562C37.7908 24.9994 37.6451 24.7708 37.4314 24.6211C37.2176 24.4716 36.9531 24.4128 36.6962 24.4583L25.0686 26.5111C24.5334 26.6056 24.1762 27.1159 24.2707 27.6511L24.7268 30.2349C24.8213 30.7701 25.3315 31.1269 25.8668 31.0329L30.712 30.1775C30.0304 30.983 29.2589 31.7177 28.3997 32.3755C25.8073 34.3601 22.7113 35.4091 19.4464 35.4091C14.7996 35.4091 10.5214 33.3017 7.70841 29.6274C5.71701 27.026 4.66562 23.9242 4.66798 20.6575C4.66838 20.1141 4.22809 19.6733 3.68468 19.6729L1.06079 19.6709C1.06053 19.6709 1.0604 19.6709 1.06014 19.6709C0.799452 19.6709 0.549395 19.7744 0.364936 19.9586C0.180214 20.1431 0.0764392 20.3933 0.0761768 20.6542C0.0731593 24.9401 1.45149 29.0081 4.06226 32.4187C7.75066 37.2366 13.359 40 19.4493 40C23.7308 40 27.791 38.6243 31.1909 36.0216C32.4212 35.0798 33.5342 33.9908 34.5032 32.7888L35.3671 37.6822C35.4513 38.1595 35.8664 38.4953 36.3349 38.4953C36.3917 38.4953 36.4493 38.4903 36.5072 38.4801L39.091 38.0239C39.6262 37.9295 39.9834 37.4191 39.889 36.8839L37.8362 25.2562Z" fill="#FF5000"/>
</g>
<defs>
<clipPath id="clip0">
<rect width="40" height="40" fill="white"/>
</clipPath>
</defs>
</svg>
