<svg width="40" height="40" viewBox="0 0 40 40" fill="none" xmlns="http://www.w3.org/2000/svg">
<path d="M20 10C14.48 10 10 14.48 10 20C10 25.52 14.48 30 20 30C25.52 30 30.0001 25.5199 30.0001 19.9999C30.0001 14.4799 25.52 10 20 10Z" fill="#FF5000"/>
<path d="M20 0C8.95002 0 0 8.95002 0 20C0 31.0499 8.95002 39.9999 20 39.9999C31.0499 39.9999 40 31.05 40 20C40 8.94993 31.05 0 20 0ZM20 36C11.16 36 3.99993 28.84 3.99993 20C3.99993 11.1599 11.16 4.00003 20 4.00003C28.8399 4.00003 36 11.16 36 20C36 28.8399 28.84 36 20 36Z" fill="#FF5000"/>
</svg>
