<svg width="157" height="40" viewBox="0 0 157 40" fill="none" xmlns="http://www.w3.org/2000/svg">
<path d="M58.798 21.2309C59.1059 21.6924 59.2598 22.1539 59.2598 22.7693C59.2598 23.2309 59.1059 23.8462 58.9519 24.1539C58.798 24.6155 58.4902 24.9232 58.1823 25.2309C57.8745 25.5386 57.4127 25.6924 56.951 25.8462C56.4892 26.0001 56.0274 26.1539 55.4117 26.1539C54.6421 26.1539 54.0265 26.0001 53.4108 25.8462C52.7951 25.5386 52.3333 25.2309 51.8716 24.6155L53.1029 23.5386C53.4108 24.0001 53.7186 24.3078 54.1804 24.4616C54.6421 24.6155 55.1039 24.7693 55.5657 24.7693C55.8735 24.7693 56.0274 24.7693 56.3353 24.6155C56.6431 24.4616 56.797 24.4616 57.1049 24.3078C57.2588 24.1539 57.5667 24.0001 57.5667 23.6924C57.7206 23.3847 57.7206 23.2309 57.7206 22.9232C57.7206 22.4616 57.5666 22.1539 57.2588 22.0001C56.951 21.8462 56.6431 21.5386 56.1814 21.3847C55.7196 21.2309 55.2578 21.077 54.7961 20.9232C54.3343 20.7693 53.8725 20.6155 53.4108 20.3078C52.949 20.0001 52.6412 19.6924 52.3333 19.2309C52.0255 18.7693 51.8716 18.1539 51.8716 17.5386C51.8716 17.2309 51.8715 16.9232 52.0255 16.4616C52.1794 16.1539 52.3333 15.6924 52.6412 15.3847C52.949 15.0771 53.4108 14.7694 53.8725 14.6156C54.3343 14.4617 54.95 14.3079 55.5657 14.3079C56.1814 14.3079 56.797 14.4617 57.2588 14.6156C57.8745 14.7694 58.3363 15.0771 58.798 15.6924L57.8745 16.9232C57.7206 16.6155 57.4127 16.4616 57.1049 16.1539C56.797 16.0001 56.3353 15.8462 55.8735 15.8462C55.4117 15.8462 55.1039 15.8462 54.7961 16.0001C54.4882 16.1539 54.3343 16.3078 54.1804 16.4616C54.0265 16.7693 53.8725 16.9232 53.8725 17.077C53.8725 17.2309 53.7186 17.3847 53.7186 17.6924C53.7186 18.1539 53.8725 18.4616 54.1804 18.7693C54.4882 19.077 54.7961 19.2309 55.2578 19.3847C55.7196 19.5386 56.1814 19.6924 56.6431 19.8462C57.1049 20.0001 57.5666 20.1539 58.0284 20.3078C58.1823 20.4616 58.4902 20.7693 58.798 21.2309ZM68.9568 20.9232H74.1902V19.5386H68.9568V16.1539H74.6519V14.7694H67.4176V26.0001H74.9598V24.6155H68.9568V20.9232ZM88.0431 14.7694L92.8147 26.0001H91.1215L90.0441 23.2309H84.6568L83.5794 26.0001H81.7323L86.6578 14.7694H88.0431ZM89.4284 21.8462L87.2735 16.7693L85.1186 21.8462H89.4284ZM105.744 21.077H108.207V24.1539C107.899 24.3078 107.437 24.4616 106.975 24.6155C106.514 24.7693 106.052 24.7693 105.436 24.7693C104.821 24.7693 104.205 24.6155 103.743 24.4616C103.281 24.3078 102.82 23.8462 102.358 23.5386C101.896 23.077 101.588 22.6155 101.434 22.1539C101.28 21.5386 101.126 21.077 101.126 20.4616C101.126 19.8462 101.28 19.2309 101.434 18.7693C101.588 18.1539 101.896 17.6924 102.358 17.3847C102.666 16.9232 103.127 16.6155 103.743 16.4616C104.205 16.1539 104.821 16.1539 105.436 16.1539C106.052 16.1539 106.514 16.3078 107.129 16.4616C107.591 16.6155 108.207 16.9232 108.669 17.3847L109.746 16.1539C109.284 15.6924 108.823 15.3847 108.053 15.0771C107.437 14.7694 106.514 14.6156 105.59 14.6156C104.667 14.6156 103.897 14.7694 103.281 15.0771C102.512 15.3847 101.896 15.8462 101.434 16.3078C100.973 16.7693 100.511 17.3847 100.203 18.1539C99.8951 18.9232 99.7412 19.6924 99.7412 20.4616C99.7412 21.2309 99.8951 22.0001 100.203 22.7693C100.511 23.5386 100.819 24.1539 101.434 24.6155C101.896 25.077 102.512 25.5386 103.281 25.8462C104.051 26.1539 104.821 26.3078 105.744 26.3078C106.052 26.3078 106.514 26.3078 106.822 26.3078C107.283 26.3078 107.591 26.1539 107.899 26.1539C108.207 26.0001 108.669 26.0001 108.976 25.8462C109.284 25.6924 109.592 25.5386 109.9 25.3847V19.8462H105.898V21.077H105.744ZM123.445 14.7694L128.217 26.0001H126.523L125.446 23.2309H120.059L118.981 26.0001H117.288L122.214 14.7694H123.445ZM124.83 21.8462L122.675 16.7693L120.521 21.8462H124.83ZM132.988 16.1539H136.528V25.8462H138.068V16.1539H141.608V14.7694H132.834V16.1539H132.988ZM150.843 20.9232H156.076V19.5386H150.843V16.1539H156.538V14.7694H149.304V26.0001H156.846V24.6155H150.843V20.9232Z" fill="white"/>
<path fill-rule="evenodd" clip-rule="evenodd" d="M21.2412 38.7691C20.7794 36.923 20.3176 35.2308 19.8559 33.5385C20.3176 33.2308 20.7794 33.077 21.2412 32.9231C23.3961 32.0001 25.551 30.923 27.552 29.5384C30.0147 27.8461 32.3235 26.0001 34.3245 23.8462C35.8637 22.1539 37.249 20.1537 38.0186 17.9999C38.4804 16.4614 38.7882 14.9231 38.4804 13.3846C38.3265 12.1538 37.8647 10.9231 37.0951 9.84613C36.1716 8.46152 35.0941 7.53844 33.5549 6.76921C31.7078 5.84613 29.8608 5.53844 27.8598 5.53844C26.1667 5.53844 24.4735 5.99998 22.7804 6.61536C19.702 7.69229 16.9314 9.23075 14.3147 11.0769C13.5451 11.5384 12.7755 12.1538 12.1598 12.9231C11.852 13.2307 11.5441 13.6923 11.3902 14.3077C11.2363 15.2307 11.698 15.8462 12.6216 15.8462C13.2373 15.8462 13.8529 15.6924 14.3147 15.3846C16.0078 14.6154 17.5471 13.5384 19.0863 12.6154C20.3176 11.8461 21.7029 11.0769 23.0882 10.4615C24.4735 9.84613 25.8588 9.53844 27.398 9.84613C29.0912 10.1538 30.3226 10.9231 31.0922 12.3077C31.7078 13.3846 31.7078 14.4615 31.4 15.5384C31.0922 16.7691 30.3226 17.8461 29.399 18.7691C28.1677 20.1537 26.7824 21.2308 25.2431 22.1539C23.55 23.077 22.0108 24.1537 20.3176 24.923C18.3167 25.9999 16.3157 26.6153 14.1608 27.2307C12.3137 27.6922 10.6206 27.9999 8.77353 27.8461C7.23432 27.6922 5.6951 27.2307 4.46373 26.3076C3.23236 25.5384 2.46275 24.4616 2.00098 23.077C1.23138 21.077 1.23138 18.9231 1.69314 16.9231C2.30883 14.6154 3.5402 12.4615 4.92549 10.6154C6.00294 9.23075 7.38824 7.84613 8.77353 6.76921C10.7745 5.0769 12.9294 3.53844 15.0843 2.30767C15.8539 1.84613 16.6235 1.53844 17.3931 1.0769C17.701 1.53844 17.8549 2.15383 18.1627 2.61536C17.5471 2.92306 16.7775 3.3846 16.1618 3.69229C13.3912 5.23075 10.7745 7.0769 8.46569 9.38459C7.23432 10.6154 6.15686 12 5.38726 13.5384C4.61765 15.2307 4.15588 16.923 4.30981 18.7691C4.46373 20.7691 5.54118 22.3076 7.38824 23.2307C8.46569 23.8461 9.69706 23.9999 10.9284 23.9999C12.6216 23.9999 14.1608 23.5385 15.7 22.9231C18.0088 22.1539 20.1637 20.9231 22.3186 19.6924C23.55 18.9231 24.7814 18.1537 25.8588 17.2307C26.4745 16.7691 26.9363 16.1539 27.2441 15.3846C27.7059 14 27.0902 12.9231 25.551 12.7692C24.7814 12.7692 24.0118 12.9231 23.3961 13.2307C21.549 14 20.0098 15.2307 18.3167 16.3076C17.0853 17.0768 15.7 17.8462 14.3147 18.4616C13.3912 18.7693 12.3137 19.077 11.2363 18.9231C9.38922 18.7693 8.31177 17.2308 8.46569 15.3846C8.61961 14 9.38922 12.7692 10.3127 11.6923C11.3902 10.4615 12.6216 9.53844 13.8529 8.76921C15.8539 7.53844 17.8549 6.30767 20.1637 5.23075C22.6265 4.15383 25.2431 3.23075 28.0137 2.92306C30.0147 2.76921 32.0157 2.92306 34.0167 3.3846C35.7098 3.84613 37.4029 4.61536 38.7882 5.69229C40.1735 6.76921 41.4049 7.99998 42.1745 9.69229C42.9441 11.0769 43.4059 12.6154 43.5598 14.1538C43.7137 15.8461 43.5598 17.5385 42.9441 19.077C42.4824 20.6154 41.8667 22.1539 40.9431 23.5385C40.0196 25.5385 38.4804 27.2308 36.9412 28.9231C35.248 30.4616 33.5549 32.1537 31.5539 33.3845C29.0912 35.0768 26.4745 36.6153 23.55 37.8461C22.7804 38.1537 22.0108 38.4614 21.2412 38.7691Z" fill="#71BB4B"/>
</svg>
