<svg width="113" height="40" viewBox="0 0 113 40" fill="none" xmlns="http://www.w3.org/2000/svg">
<path d="M94.2887 3.16797V36.728C99.5929 37.608 104.865 38.672 110.112 39.928V22.936L104.816 24.408V34.024C103.278 33.696 101.733 33.384 100.187 33.088V19.52C102.107 19.888 104.019 20.28 105.922 20.696V16.32C104.019 15.904 102.099 15.512 100.187 15.144V11L96.9408 8.27197C98.4865 8.56797 103.278 9.46397 104.816 9.79197V12.56C104.816 12.56 108.477 13.384 110.112 13.776V10.976L113 7.07997C106.809 5.51197 100.569 4.20797 94.2887 3.16797Z" fill="white"/>
<path d="M26.5863 14.2239L30.8411 26.9999C32.3217 26.8319 33.8024 26.6799 35.2911 26.5439L39.3995 13.6319V26.2079C41.116 26.0799 42.8326 25.9679 44.5492 25.8799V0.36792C42.3119 0.48792 40.0747 0.63192 37.8375 0.815919L33.3224 19.0079L28.368 1.78392C26.1633 2.05592 23.9586 2.35992 21.7621 2.68792C21.7621 11.1919 21.7621 19.6959 21.7621 28.1999C23.2508 27.9759 25.0894 27.7039 26.5863 27.5039V14.2239Z" fill="white"/>
<path d="M53.1889 19.728C55.4261 19.696 57.6715 19.696 59.9169 19.728C60.4782 19.736 60.9989 19.624 61.4707 19.4C61.9263 19.184 62.3249 18.904 62.6422 18.56C62.9676 18.224 63.2117 17.84 63.3825 17.416C63.5534 16.992 63.6428 16.568 63.6428 16.136C63.6428 11.704 63.6428 7.99999 63.6428 3.63199C63.6428 3.19999 63.5452 2.77599 63.3663 2.35199C63.1873 1.94399 62.9269 1.55999 62.6015 1.22399C62.2842 0.887995 61.8856 0.615996 61.4382 0.399996C60.9826 0.183996 60.4701 0.0719948 59.9169 0.0639948C55.8899 -5.1558e-06 51.8547 0.0479958 47.8277 0.199996V25.712C49.6175 25.64 51.3991 25.6 53.1889 25.568V19.728ZM49.8534 4.67999C51.5374 4.65599 56.557 4.62399 58.2491 4.63199V15.128C56.5651 15.12 54.8729 15.12 53.1808 15.144V6.67199L49.8534 4.67999Z" fill="white"/>
<path d="M72.2826 0.599898C70.5009 0.479898 68.7111 0.375898 66.9295 0.295898V25.8079C68.7193 25.8879 70.5009 25.9919 72.2826 26.1119V0.599898Z" fill="white"/>
<path d="M80.9223 21C81.5569 21.064 82.1914 21.136 82.826 21.208C83.607 23.248 84.3799 25.296 85.1609 27.344C87.0239 27.576 88.8787 27.832 90.7336 28.112C89.9444 26.008 89.1553 23.912 88.358 21.824C88.6509 21.808 88.9113 21.752 89.1553 21.672C89.6109 21.512 90.0014 21.272 90.3187 20.976C90.6359 20.68 90.8881 20.32 91.0508 19.92C91.2217 19.52 91.3112 19.096 91.3112 18.672C91.3112 14.504 91.3112 10.336 91.3112 6.16796C91.3112 5.73596 91.2136 5.29596 91.0346 4.85596C90.8556 4.42396 90.6034 4.01596 90.278 3.63996C89.9607 3.26396 89.5702 2.94396 89.1146 2.67996C88.6591 2.41596 88.1547 2.23996 87.6015 2.16796C83.5989 1.62396 79.5881 1.18396 75.5693 0.855957V26.368C77.3509 26.512 79.1407 26.68 80.9142 26.872V21H80.9223ZM77.6763 5.54396C79.3603 5.71996 84.2904 6.30396 85.9662 6.51996V17.016C84.2904 16.8 82.6064 16.6 80.9305 16.424V7.90396L77.6763 5.54396Z" fill="white"/>
<path d="M21.7621 31.3519V36.2479C44.8095 32.7439 68.2637 32.7439 91.3193 36.2559V31.3599C68.2718 27.8479 44.8095 27.8399 21.7621 31.3519Z" fill="white"/>
<path d="M2.88805 10.976V39.928C8.12721 38.672 13.4071 37.608 18.7113 36.728V21.12L13.4152 23.88V32.968C11.8695 33.264 10.3238 33.576 8.78618 33.904V20.328C10.6817 19.928 12.5854 19.544 14.4891 19.192C14.4891 17.728 14.4891 16.272 14.4891 14.816C12.5854 15.168 10.6817 15.544 8.78618 15.952V11.72L5.18222 10.368C6.72793 10.04 11.8695 9.01602 13.4152 8.72802V11.544L18.7113 10.584V3.17603C12.4308 4.21603 6.191 5.52003 0 7.08002L2.88805 10.976Z" fill="white"/>
</svg>
