<svg width="334" height="100" viewBox="0 0 334 100" fill="none" xmlns="http://www.w3.org/2000/svg">
<g clip-path="url(#clip0)">
<path d="M110.862 76.2491C110.862 77.3216 110.544 78.3701 109.948 79.2619C109.353 80.1537 108.506 80.8487 107.515 81.2592C106.525 81.6696 105.435 81.777 104.383 81.5677C103.332 81.3585 102.366 80.842 101.608 80.0836C100.849 79.3252 100.333 78.359 100.124 77.307C99.9147 76.2551 100.022 75.1647 100.432 74.1738C100.843 73.1829 101.538 72.336 102.429 71.7401C103.321 71.1443 104.369 70.8262 105.441 70.8262C106.153 70.8246 106.859 70.9638 107.517 71.2357C108.176 71.5077 108.774 71.9071 109.278 72.411C109.781 72.9148 110.181 73.5133 110.453 74.172C110.724 74.8306 110.864 75.5365 110.862 76.2491ZM176.647 9.74896C181.629 12.5396 163.478 40.6166 134.849 55.496C132.778 64.3675 135.056 70.29 137.005 70.0463C142.975 68.2306 140.477 53.4365 140.477 53.4365C140.477 53.4365 151.234 48.2574 152.087 47.8309C156.387 61.2357 149.346 81.1236 135.872 81.6354C118.72 81.0626 119.84 61.5525 119.84 61.5525L109.644 64.6966L112.519 56.9218C112.519 56.9218 119.122 55.2157 120.498 54.8379C132.084 15.5252 168.436 5.22788 176.647 9.74896ZM137.663 47.6968C144.327 46.3076 170.702 18.2793 165.207 18.7668C154.243 21.4477 135.409 46.4782 137.59 47.7212L137.663 47.6968ZM158.909 45.6739V51.2796C158.909 51.2796 166.219 46.4904 166.828 47.3678C167.035 49.8903 157.715 71.1796 157.52 74.409C157.362 75.9688 158.178 81.7207 163.051 81.7207C164.95 81.6715 166.81 81.1791 168.484 80.2827C175.672 76.3709 183.323 68.8399 183.323 68.8399C183.323 68.8399 181.495 73.5803 182.287 77.3702C183.079 81.1601 187.063 82.6956 191.326 81.1236C195.59 79.5516 201.072 75.7982 203.143 73.2757C202.827 72.4714 201.633 68.6693 201.633 68.6693C201.633 68.6693 197.832 72.252 196.906 71.8011C195.98 71.3502 208.041 35.8884 208.041 35.8884H194.725C192.74 44.9062 181.325 68.4134 173.516 69.437C170.872 69.242 182.908 42.408 183.335 39.3614C184.224 35.4009 181.288 33.573 177.743 34.3895C174.027 35.6081 158.909 45.747 158.909 45.747V45.6739ZM239.897 35.8884H252.518L232.064 100H219.285C219.285 100 226.448 75.3107 227.959 73.3731C217.811 86.2174 208.784 81.1236 207.188 70.5216C205.726 57.7139 210.38 45.6495 221.319 38.5815C231.784 32.0497 236.852 36.9851 238.375 39.5077C238.63 38.9106 239.922 35.8518 239.922 35.8518L239.897 35.8884ZM234.683 48.1599C234.781 42.7614 231.029 42.8345 228.044 46.2223C226.911 47.5262 220.735 56.873 220.954 64.3432C221.368 70.6678 224.17 69.0105 225.961 67.999C230.164 65.1109 234.294 54.3261 234.683 48.1477V48.1599ZM43.9931 81.6476C55.3105 81.6476 69.1131 48.8911 75.119 36.5586C76.2641 34.1214 76.9463 32.3787 77.5555 32.3056C79.6874 34.5723 59.8667 69.8026 70.8552 79.3566C71.9388 80.4058 73.2857 81.1426 74.7535 81.4892C85.3521 83.6096 92.7956 70.1925 99.1182 63.1002L95.9995 59.8708C93.8798 62.3081 91.4068 68.4012 89.6282 65.184C86.1075 59.5052 107.573 0 107.573 0H87.3744C85.2791 3.534 62.7539 54.5576 58.4779 55.2766C57.7713 55.6178 57.4302 54.911 57.4302 54.1921C59.8667 35.0841 64.9711 18.4255 70.9892 0H50.8152C39.1323 32.5615 38.9861 32.9637 28.4119 54.5576C23.1004 64.4772 15.3159 70.8384 20.9685 55.2766H2.5853C-0.959759 64.8184 -2.43382 80.5752 8.94449 81.6476H9.61452C22.1989 81.6476 35.8553 49.5613 37.2563 48.1721C36.1964 59.1397 31.1651 72.2642 37.6095 78.9544C39.2992 80.659 41.5935 81.6269 43.9931 81.6476ZM264.871 70.1316C269.379 76.7 282.231 64.3554 282.231 64.3554L285.191 68.9252C285.191 68.9252 275.117 81.9035 263.434 81.6476C257.927 81.5379 256.124 79.9537 252.543 77.0899C251.398 77.8699 247.182 80.3924 247.182 80.3924L244.965 74.3846C244.965 74.3846 248.145 72.6663 249.655 71.7646C246.22 41.5184 276.457 30.4655 287.421 36.6439C294.901 41.1772 289.077 57.3605 264.81 70.1316H264.871ZM264.079 64.5869C277.151 54.2286 282.706 44.4918 279.916 42.5664C277.127 40.641 271.535 45.4667 268.063 51.6329C264.591 57.7992 263.507 63.6729 264.043 64.5869H264.079ZM291.027 73.9459C291.843 75.8226 295.071 81.477 302.064 81.6719C305.012 81.7694 308.228 80.758 313.125 78.1014C329.535 69.1445 333.567 46.7463 333.287 42.5177C333.214 33.4755 326.891 34.7551 325.832 35.0841C317.085 38.0088 309.434 48.9885 309.434 48.9885L313.235 52.7906C313.235 52.7906 316.89 45.9176 320.325 45.9176C323.761 45.9176 318.279 59.3224 317.401 61.321C312.833 71.399 304.549 75.7373 302.283 66.8291C299.432 52.2057 319.338 36.4489 319.338 36.4489H305.779C305.779 36.4489 283.059 54.1311 291.027 73.9459Z" fill="white"/>
</g>
<defs>
<clipPath id="clip0">
<rect width="333.333" height="100" fill="white"/>
</clipPath>
</defs>
</svg>
