<svg width="40" height="40" viewBox="0 0 40 40" fill="none" xmlns="http://www.w3.org/2000/svg">
<path d="M20 14C16.688 14 14 16.688 14 20C14 23.312 16.688 26 20 26C23.312 26 26 23.312 26 20C26 16.688 23.312 14 20 14Z" fill="#FF5000"/>
<path d="M20 0C8.95002 0 0 8.95002 0 20C0 31.0499 8.95002 39.9999 20 39.9999C31.0499 39.9999 40 31.05 40 20C40 8.94993 31.05 0 20 0ZM20 36C11.16 36 3.99993 28.84 3.99993 20C3.99993 11.1599 11.16 4.00003 20 4.00003C28.8399 4.00003 36 11.16 36 20C36 28.8399 28.84 36 20 36Z" fill="#FF5000"/>
<path d="M20 7C12.8175 7 7 12.8175 7 20C7 27.1825 12.8175 33 20 33C27.1824 33 33 27.1825 33 20C33 12.8175 27.1825 7 20 7ZM20 30.4C14.254 30.4 9.59996 25.7461 9.59996 20C9.59996 14.254 14.254 9.60002 20 9.60002C25.7459 9.60002 30.4 14.254 30.4 20C30.4 25.746 25.746 30.4 20 30.4Z" fill="#FF5000"/>
</svg>
