<svg width="40" height="40" viewBox="0 0 40 40" fill="none" xmlns="http://www.w3.org/2000/svg">
<g clip-path="url(#clip0)">
<path d="M13.2263 12.5719C13.7035 12.4877 14.022 12.0327 13.9377 11.5556L13.531 9.25192C13.4468 8.7748 12.9919 8.4563 12.5147 8.54052L8.19483 9.30315C8.8026 8.58497 9.49037 7.92994 10.2564 7.34346C12.54 5.59549 15.3791 4.63284 18.2511 4.63284C18.4079 4.63284 18.5669 4.63565 18.7236 4.64138C18.957 4.65038 19.1825 4.56558 19.3529 4.40709C19.5233 4.24871 19.6238 4.02905 19.6322 3.7964L19.717 1.45855C19.7253 1.22602 19.6411 0.999684 19.4826 0.829261C19.3241 0.658838 19.1045 0.558479 18.8718 0.550058C18.6682 0.542689 18.4615 0.539062 18.2575 0.539062C14.4869 0.539062 10.7617 1.80115 7.76801 4.09268C6.67108 4.93239 5.67884 5.90335 4.81491 6.97501L4.04468 2.61209C3.96046 2.13498 3.50557 1.81636 3.02834 1.90069L0.724415 2.30739C0.247301 2.39161 -0.0712036 2.84661 0.0130136 3.32385L1.8431 13.6908C1.88357 13.9199 2.01341 14.1235 2.20395 14.257C2.3525 14.3609 2.5283 14.4155 2.70703 14.4155C2.75779 14.4155 2.80891 14.411 2.85944 14.4022L13.2263 12.5719Z" fill="#FF5000"/>
<path d="M39.9031 8.80936C39.7966 8.60244 39.6124 8.44629 39.3909 8.37529L29.3664 5.16123C28.9052 5.01338 28.411 5.26744 28.2632 5.72876L25.049 15.7533C24.901 16.2146 25.1551 16.7086 25.6165 16.8565L27.8442 17.5708C27.9315 17.5987 28.0218 17.6126 28.112 17.6126C28.2504 17.6126 28.3881 17.5799 28.5132 17.5154C28.7203 17.409 28.8763 17.2248 28.9474 17.0032L30.2868 12.8258C30.6388 13.6983 30.8976 14.6122 31.0593 15.5633C31.57 18.5683 31.0169 21.676 29.5023 24.3139C29.3864 24.5156 29.3555 24.7552 29.4162 24.9798C29.4769 25.2043 29.6244 25.3957 29.8262 25.5115L31.8549 26.6764C31.9927 26.7555 32.1428 26.7931 32.291 26.7931C32.5948 26.7931 32.8903 26.635 33.0525 26.3525C35.0395 22.8925 35.765 18.8173 35.0954 14.8776C34.8639 13.5156 34.4676 12.1849 33.9223 10.9211L38.1409 12.2737C38.6022 12.4216 39.0963 12.1676 39.2441 11.7062L39.9585 9.47853C40.0293 9.25699 40.0095 9.01627 39.9031 8.80936Z" fill="#FF5000"/>
<path d="M15.9921 23.0648C15.8204 22.9079 15.5935 22.8255 15.3609 22.8358C15.1285 22.8462 14.9097 22.9485 14.7527 23.1202L13.1739 24.8464C12.8468 25.204 12.8716 25.7589 13.2291 26.0859L16.4655 29.046C15.5262 29.0013 14.5838 28.855 13.656 28.606C10.712 27.8158 8.11897 26.0161 6.35415 23.5386C6.07307 23.1439 5.52519 23.0519 5.13078 23.3331L3.22525 24.6904C3.03576 24.8253 2.90768 25.0301 2.86908 25.2595C2.83048 25.489 2.88475 25.7244 3.01973 25.9138C5.33465 29.1636 8.73504 31.5238 12.5948 32.56C13.9255 32.9172 15.2982 33.1118 16.6809 33.1439L13.6896 36.4144C13.3627 36.772 13.3873 37.3269 13.7448 37.6538L15.471 39.2327C15.6331 39.3809 15.8444 39.4626 16.0631 39.4626C16.0761 39.4626 16.0892 39.4623 16.1022 39.4618C16.3346 39.4514 16.5534 39.3492 16.7104 39.1775L23.8153 31.4095C24.1422 31.0519 24.1175 30.497 23.7601 30.1701L15.9921 23.0648Z" fill="#FF5000"/>
</g>
<defs>
<clipPath id="clip0">
<rect width="40" height="40" fill="white"/>
</clipPath>
</defs>
</svg>
